<svg width="47" height="47" viewBox="0 0 47 47" fill="none" xmlns="http://www.w3.org/2000/svg">
<path d="M29.375 15.6667H29.3946M5.875 11.75C5.875 10.1919 6.49397 8.69752 7.59575 7.59575C8.69752 6.49397 10.1919 5.875 11.75 5.875H35.25C36.8081 5.875 38.3025 6.49397 39.4043 7.59575C40.506 8.69752 41.125 10.1919 41.125 11.75V35.25C41.125 36.8081 40.506 38.3025 39.4043 39.4043C38.3025 40.506 36.8081 41.125 35.25 41.125H11.75C10.1919 41.125 8.69752 40.506 7.59575 39.4043C6.49397 38.3025 5.875 36.8081 5.875 35.25V11.75Z" stroke="black" stroke-width="2" stroke-linecap="round" stroke-linejoin="round"/>
<path d="M5.875 31.3332L15.6667 21.5416C17.484 19.7928 19.7243 19.7928 21.5417 21.5416L31.3333 31.3332" stroke="black" stroke-width="2" stroke-linecap="round" stroke-linejoin="round"/>
<path d="M27.4167 27.4169L29.3751 25.4586C31.1924 23.7098 33.4327 23.7098 35.2501 25.4586L41.1251 31.3336" stroke="black" stroke-width="2" stroke-linecap="round" stroke-linejoin="round"/>
</svg>
